Coordinates
version=1
nRows=13
nColumns=40
inDegrees=yes

Units are S.I. units (second, meters, Newtons, ...)
Angles are in degrees.

endheader
time	pelvis_tilt	pelvis_list	pelvis_rotation	pelvis_tx	pelvis_ty	pelvis_tz	hip_flexion_r	hip_adduction_r	hip_rotation_r	knee_angle_r	knee_angle_r_beta	ankle_angle_r	subtalar_angle_r	mtp_angle_r	hip_flexion_l	hip_adduction_l	hip_rotation_l	knee_angle_l	knee_angle_l_beta	ankle_angle_l	subtalar_angle_l	mtp_angle_l	lumbar_extension	lumbar_bending	lumbar_rotation	arm_flex_r	arm_add_r	arm_rot_r	elbow_flex_r	pro_sup_r	wrist_flex_r	wrist_dev_r	arm_flex_l	arm_add_l	arm_rot_l	elbow_flex_l	pro_sup_l	wrist_flex_l	wrist_dev_l
     38.22600000	     -2.99436471	     -4.98049684	     -2.47743370	      0.91519621	      0.91290953	      0.40435568	     26.71360322	     -5.66764204	     -4.35845139	     65.20300999	     65.20300999	      7.47768883	    -18.71419211	      9.01123584	     18.21737013	     -2.28819217	     -2.24330410	     34.16633508	     34.16633508	     20.97139177	    -16.51546310	      5.32396833	    -11.57121346	      6.31499344	      1.09025317	     -0.91561631	    -13.12405237	    -11.23386869	     23.20535873	     46.58411427	      0.00000000	      0.00000000	     21.34187066	    -15.57346864	     10.58471027	     35.53153766	     46.23655320	      0.00000000	      0.00000000
     38.24700000	     -2.93732684	     -5.05275095	     -3.01761856	      0.91404504	      0.91305172	      0.40382317	     27.93564749	     -5.23672941	     -3.84947579	     63.89259837	     63.89259837	      8.15541986	    -18.38069138	      8.87972287	     17.64659151	     -2.39436487	     -2.68334859	     34.05190661	     34.05190661	     21.27865008	    -16.59264685	      5.30923761	    -11.61146267	      6.59207563	     -0.05136570	     -2.99264667	    -13.18413551	    -11.33260839	     22.59040092	     46.60040568	      0.00000000	      0.00000000	     22.69766574	    -16.46642013	     10.27546973	     36.06831015	     46.29111384	      0.00000000	      0.00000000
     38.26800000	     -2.87104521	     -5.22116992	     -3.71440370	      0.91290720	      0.91400175	      0.40386990	     28.86793760	     -4.56717871	     -3.30181817	     61.69797578	     61.69797578	      8.56256920	    -18.18935647	      8.41729116	     16.80606081	     -2.64188269	     -3.22666901	     33.51668411	     33.51668411	     21.57262360	    -16.54495571	      5.59401845	    -11.86902782	      6.90430408	      0.86797803	     -6.39628299	    -13.30721182	    -11.69455406	     22.19499453	     46.61982413	      0.00000000	      0.00000000	     24.59400797	    -16.40730807	      9.22845405	     38.53151398	     46.45055670	      0.00000000	      0.00000000
     38.28900000	     -3.01495463	     -5.31843327	     -4.41653486	      0.91167482	      0.91515973	      0.40417689	     29.66319260	     -4.09475802	     -3.02222653	     58.59662803	     58.59662803	      8.09675568	    -17.78310952	      4.84108913	     16.11536053	     -2.85743090	     -3.88506536	     32.81860978	     32.81860978	     21.76463099	    -16.34494585	      5.81911190	    -11.92265901	      7.18016802	      0.58775060	     -9.73453148	    -13.30205651	    -13.43302038	     25.05362167	     46.61696893	      0.00000000	      0.00000000	     25.29697546	    -16.84165064	      6.01065368	     41.88490702	     46.81772116	      0.00000000	      0.00000000
     38.31000000	     -3.13751917	     -5.40412693	     -5.19451301	      0.91044971	      0.91697183	      0.40497374	     30.19471611	     -3.51452208	     -2.68951687	     54.91946340	     54.91946340	      8.37508332	    -16.86440912	      3.81849501	     15.17779507	     -3.07701778	     -4.65770257	     31.70881837	     31.70881837	     21.72732420	    -16.13758845	      5.90149013	    -11.93391988	      7.36675711	      0.67784781	    -11.75985577	    -13.37019376	    -13.71149073	     24.53568521	     46.64502009	      0.00000000	      0.00000000	     26.95048167	    -17.30725216	      5.15624502	     43.27599344	     46.92749899	      0.00000000	      0.00000000
     38.33100000	     -3.32412137	     -5.52073816	     -5.96883823	      0.90924452	      0.91906058	      0.40608426	     30.42453571	     -2.94949717	     -2.59032795	     50.56604208	     50.56604208	      8.60151369	    -15.28556056	      2.63740760	     14.18626221	     -3.33113296	     -5.44218827	     30.38287231	     30.38287231	     21.59763121	    -15.83724015	      5.94222317	    -11.87621508	      7.60688291	      0.65768176	    -13.54075762	    -13.45639184	    -14.05438833	     24.46795689	     46.65965371	      0.00000000	      0.00000000	     28.38886325	    -17.90248096	      4.26252193	     44.85753476	     47.03899088	      0.00000000	      0.00000000
     38.35200000	     -3.70895572	     -5.60563894	     -6.75417515	      0.90792317	      0.92102461	      0.40753757	     30.57621875	     -2.40708161	     -2.70377173	     45.71300427	     45.71300427	      8.61985789	    -13.21967998	      2.01427910	     13.38821857	     -3.57822679	     -6.26316913	     28.99181059	     28.99181059	     21.38704888	    -15.48500399	      6.03612488	    -11.62097121	      7.81974579	      0.58099801	    -15.02978454	    -13.51868276	    -14.31899873	     24.46945897	     46.66672027	      0.00000000	      0.00000000	     29.73704239	    -18.60493413	      3.53583261	     46.23881100	     47.13129497	      0.00000000	      0.00000000
     38.37300000	     -3.94993537	     -5.59072327	     -7.54751272	      0.90687442	      0.92292107	      0.40930090	     30.01559126	     -2.00276714	     -3.06380672	     39.86955455	     39.86955455	      6.19223432	    -11.54663702	     -5.34640216	     12.29988016	     -3.70244364	     -7.20441838	     27.34404496	     27.34404496	     20.57457350	    -15.26636900	      4.58269617	    -11.61733295	      7.87475364	      0.51604516	    -16.81318958	    -13.32307063	    -16.19078900	     26.45731073	     46.68554419	      0.00000000	      0.00000000	     30.32103237	    -19.03183904	     -0.01381396	     50.02404841	     47.42176878	      0.00000000	      0.00000000
     38.39400000	     -4.21388925	     -5.62340407	     -8.27140737	      0.90585400	      0.92458270	      0.41136102	     29.42649568	     -1.46290010	     -3.49636764	     34.39420065	     34.39420065	      6.04619627	     -8.27648222	     -4.78293560	     11.33473582	     -3.86531076	     -8.02533528	     25.93452439	     25.93452439	     20.47349461	    -14.80923642	      4.74831402	    -11.48284868	      7.98238545	      0.63311665	    -17.77462211	    -13.31734519	    -16.30505813	     26.41287208	     46.68478711	      0.00000000	      0.00000000	     31.85680451	    -19.74682372	     -0.38197419	     51.30476463	     47.47693138	      0.00000000	      0.00000000
     38.41500000	     -4.49307545	     -5.55368986	     -8.92594272	      0.90504750	      0.92563036	      0.41361903	     28.69890093	     -1.01864857	     -4.12585488	     29.00657403	     29.00657403	      5.59396898	     -4.75432759	     -3.87323914	     10.47024614	     -3.91328953	     -8.82330761	     24.66758799	     24.66758799	     20.39021446	    -14.37014914	      4.77306924	    -11.27421564	      8.00097620	      0.79553310	    -18.59716950	    -13.20752998	    -16.42064707	     26.52533714	     46.67815026	      0.00000000	      0.00000000	     33.33830197	    -20.42487980	     -0.79315976	     52.71707135	     47.53817035	      0.00000000	      0.00000000
     38.43600000	     -4.62761194	     -5.31781167	     -9.52019184	      0.90453011	      0.92603311	      0.41594572	     27.95076902	     -0.93286714	     -5.39514542	     24.39522845	     24.39522845	      5.83767987	      0.19895473	     -1.12425614	      9.49379568	     -3.74940990	     -9.60775345	     23.43817337	     23.43817337	     20.01544496	    -14.02050102	      3.70366745	    -11.26809713	      7.78578544	      0.75050155	    -19.53859179	    -13.01431137	    -17.04941922	     28.20111790	     46.62277547	      0.00000000	      0.00000000	     34.03766355	    -21.28276843	     -2.09278806	     56.16023846	     47.66573129	      0.00000000	      0.00000000
     38.45700000	     -4.83754678	     -5.13393515	    -10.01111113	      0.90426848	      0.92579859	      0.41862425	     27.13213985	     -0.50859697	     -6.00061330	     19.98105839	     19.98105839	      4.95240287	      3.09772691	      0.28349997	      8.81244716	     -3.66345596	    -10.16686964	     22.66828607	     22.66828607	     20.14955619	    -13.77426810	      3.62374131	    -10.98856656	      7.65395205	      0.90786640	    -19.85689297	    -12.78851568	    -17.02813306	     28.15107086	     46.61709017	      0.00000000	      0.00000000	     35.57696270	    -21.84594364	     -2.36821838	     57.11691646	     47.71172203	      0.00000000	      0.00000000
     38.47800000	     -4.83921410	     -4.94508533	    -10.42363579	      0.90443027	      0.92523869	      0.42133979	     26.26624874	     -0.26355934	     -7.09719044	     16.54737231	     16.54737231	      4.28456169	      6.43963306	      1.80946325	      7.95495354	     -3.53689639	    -10.71219063	     22.03112742	     22.03112742	     20.37649482	    -13.44976415	      3.34508284	    -10.98563540	      7.53965771	      1.18257086	    -20.13731836	    -12.64172901	    -17.03688114	     28.16607818	     46.61067321	      0.00000000	      0.00000000	     37.10515274	    -22.36383955	     -2.71260027	     58.38960167	     47.76658062	      0.00000000	      0.00000000
